# File created by Blade
# Date/Time:  Fri Jan 16 17:52:57 2015
#---------------------------------------------------------
:version 1.10
:name HOM
:units
  mass 1.0
  length 1.000000
  angle deg
:documentation
     Acclaim Skeleton File
:root
   axis xyz
   order TX TY TZ RX RY RZ
   position 0.000000 0.000000 0.000000
   orientation 0 0 0
:bonedata
   begin
      id 1
      name Spine_dum
      direction 0.000000 1.000000 0.000000
      length 7.170412
      axis 0.0 0.0 0.0 xyz
   end
   begin
      id 2
      name LeftUpLeg_dum
      direction 1.000000 0.000000 0.000000
      length 4.318350
      axis 0.0 0.0 0.0 xyz
   end
   begin
      id 3
      name RightUpLeg_dum
      direction -1.000000 0.000000 0.000000
      length 4.318350
      axis 0.0 0.0 0.0 xyz
   end
   begin
      id 4
      name Spine
      direction 0.000000 1.000000 0.000000
      length 0.000000
      axis 0.0 0.0 0.0 xyz
      dof rx ry rz
   end
   begin
      id 5
      name Spine_dum1
      direction 0.000000 1.000000 0.000000
      length 14.276153
      axis 0.0 0.0 0.0 xyz
   end
   begin
      id 6
      name Spine_dum2
      direction 0.000000 1.000000 0.000000
      length 10.718243
      axis 0.0 0.0 0.0 xyz
   end
   begin
      id 7
      name Spine_dum3
      direction 0.000000 1.000000 0.000000
      length 10.718243
      axis 0.0 0.0 0.0 xyz
   end
   begin
      id 8
      name Head
      direction 0.000000 1.000000 0.000000
      length 4.527550
      axis 0.0 0.0 0.0 xyz
      dof rx ry rz
   end
   begin
      id 9
      name LeftShoulder
      direction 1.000000 0.000000 0.000000
      length 7.058872
      axis 0.0 0.0 -90.0 xyz
      dof rx ry rz
   end
   begin
      id 10
      name LeftArm
      direction 1.000000 0.000000 0.000000
      length 10.955525
      axis 0.0 0.0 -90.0 xyz
      dof rx ry rz
   end
   begin
      id 11
      name LeftForeArm
      direction 1.000000 0.000000 0.000000
      length 8.193716
      axis 0.0 0.0 -90.0 xyz
      dof ry rz rx
   end
   begin
      id 12
      name LeftHand
      direction 0.000000 0.000000 0.000000
      length 0.000000
      axis 0.0 0.0 -90.0 xyz
      dof rx ry rz
   end
   begin
      id 13
      name LeftHand_dum1
      direction 0.000000 0.000000 0.000000
      length 0.000000
      axis 0.0 0.0 -90.0 xyz
   end
   begin
      id 14
      name LeftHand_dum2
      direction 1.000000 0.000000 0.000000
      length 3.937000
      axis 0.0 0.0 -90.0 xyz
   end
   begin
      id 15
      name LeftHandThumb1
      direction 0.000000 0.000000 1.000000
      length 3.937000
      axis 0.0 0.0 -90.0 xyz
      dof rx rz ry
   end
   begin
      id 16
      name RightShoulder
      direction -1.000000 0.000000 0.000000
      length 7.058872
      axis 0.0 0.0 90.0 xyz
      dof rx ry rz
   end
   begin
      id 17
      name RightArm
      direction -1.000000 0.000000 0.000000
      length 10.955525
      axis 0.0 0.0 90.0 xyz
      dof rx ry rz
   end
   begin
      id 18
      name RightForeArm
      direction -1.000000 0.000000 0.000000
      length 8.193716
      axis 0.0 0.0 90.0 xyz
      dof ry rz rx
   end
   begin
      id 19
      name RightHand
      direction 0.000000 0.000000 0.000000
      length 0.000000
      axis 0.0 0.0 90.0 xyz
      dof rx ry rz
   end
   begin
      id 20
      name RightHand_dum1
      direction 0.000000 0.000000 0.000000
      length 0.000000
      axis 0.0 0.0 90.0 xyz
   end
   begin
      id 21
      name RightHand_dum2
      direction -1.000000 0.000000 0.000000
      length 3.937000
      axis 0.0 0.0 90.0 xyz
   end
   begin
      id 22
      name RightHandThumb1
      direction 0.000000 0.000000 1.000000
      length 3.937000
      axis 0.0 0.0 90.0 xyz
      dof rx rz ry
   end
   begin
      id 23
      name LeftUpLeg
      direction 0.000000 -1.000000 0.000000
      length 17.323638
      axis 0.0 0.0 0.0 xyz
      dof rx ry rz
   end
   begin
      id 24
      name LeftLeg
      direction 0.000000 -1.000000 0.000000
      length 16.270368
      axis 0.0 0.0 0.0 xyz
      dof rx ry rz
   end
   begin
      id 25
      name LeftFoot
      direction 0.000000 -0.258819 0.965926
      length 4.922846
      axis 15.0 0.0 0.0 xyz
      dof rx ry rz
   end
   begin
      id 26
      name LeftToeBase
      direction 0.000000 0.000000 1.000000
      length 2.952750
      axis 0.0 0.0 0.0 xyz
      dof rx ry rz
   end
   begin
      id 27
      name RightUpLeg
      direction 0.000000 -1.000000 0.000000
      length 17.323638
      axis 0.0 0.0 0.0 xyz
      dof rx ry rz
   end
   begin
      id 28
      name RightLeg
      direction 0.000000 -1.000000 0.000000
      length 16.270368
      axis 0.0 0.0 0.0 xyz
      dof rx ry rz
   end
   begin
      id 29
      name RightFoot
      direction 0.000000 -0.258819 0.965926
      length 4.922846
      axis 15.0 0.0 0.0 xyz
      dof rx ry rz
   end
   begin
      id 30
      name RightToeBase
      direction 0.000000 0.000000 1.000000
      length 2.952750
      axis 0.0 0.0 0.0 xyz
      dof rx ry rz
   end
:hierarchy
   begin
      root Spine_dum LeftUpLeg_dum RightUpLeg_dum
      Spine_dum Spine
      LeftUpLeg_dum LeftUpLeg
      RightUpLeg_dum RightUpLeg
      Spine Spine_dum1 Spine_dum2 Spine_dum3
      Spine_dum1 Head
      Spine_dum2 LeftShoulder
      Spine_dum3 RightShoulder
      LeftShoulder LeftArm
      LeftArm LeftForeArm
      LeftForeArm LeftHand
      LeftHand LeftHand_dum1 LeftHand_dum2
      LeftHand_dum1 LeftHandThumb1
      RightShoulder RightArm
      RightArm RightForeArm
      RightForeArm RightHand
      RightHand RightHand_dum1 RightHand_dum2
      RightHand_dum1 RightHandThumb1
      LeftUpLeg LeftLeg
      LeftLeg LeftFoot
      LeftFoot LeftToeBase
      RightUpLeg RightLeg
      RightLeg RightFoot
      RightFoot RightToeBase
   end

# File created by Blade
# Date/Time:  Fri Jan 16 17:53:05 2015
# Frame Rate: 120.000 fps
#------------------------------------------------------
:FULLY-SPECIFIED
:DEGREES
797
root -2.104124 34.841074 -11.409612 1.159141 -1.527017 -4.549348
Spine 0.504894 -4.711361 7.099429
Head 0.755352 5.135509 -6.747312
LeftShoulder -21.648832 14.377182 -6.248506
LeftArm 26.973293 -33.956556 -74.352028
LeftForeArm 1.968138 0.000000 115.705025
LeftHand 2.938737 -0.000000 15.324750
LeftHandThumb1 -26.253704 0.000000 33.147579
RightShoulder -5.606560 -5.971127 -0.527474
RightArm 4.262849 -20.464175 71.408652
RightForeArm -17.316495 -0.000000 22.675602
RightHand 0.646229 0.000000 -1.008145
RightHandThumb1 -24.326973 -0.000000 -32.862282
LeftUpLeg 6.994241 5.855316 -8.318690
LeftLeg -8.341138 -0.000000 0.000000
LeftFoot -15.988926 27.761534 -6.854217
LeftToeBase 18.926480 -0.000000 -0.000000
RightUpLeg 2.512447 22.897853 2.929496
RightLeg 104.216963 -0.000000 -0.000000
RightFoot -33.036882 -30.498821 22.827468
RightToeBase 1.751193 -0.000000 -0.000000
798
root -2.082689 34.835428 -11.420092 1.233583 -1.239503 -4.533257
Spine 0.403366 -5.005141 7.173955
Head 0.722023 5.170481 -6.844101
LeftShoulder -21.634778 14.292184 -6.302747
LeftArm 27.040307 -33.926002 -74.415773
LeftForeArm 2.024607 -0.000000 115.635308
LeftHand 3.007127 0.000000 15.272356
LeftHandThumb1 -26.253704 0.000000 33.147579
RightShoulder -5.632899 -5.987085 -0.533304
RightArm 4.205310 -20.420711 71.364998
RightForeArm -17.274783 -0.000000 22.650186
RightHand 0.611511 -0.000000 -0.899606
RightHandThumb1 -24.326973 -0.000000 -32.862282
LeftUpLeg 6.944127 5.820376 -8.367646
LeftLeg -8.438658 -0.000000 0.000000
LeftFoot -15.877113 27.620575 -6.763605
LeftToeBase 18.959765 -0.000000 -0.000000
RightUpLeg 2.653051 24.164968 2.834068
RightLeg 104.477017 -0.000000 -0.000000
RightFoot -33.044551 -30.558617 22.651796
RightToeBase 1.828645 -0.000000 -0.000000
799
root -2.063651 34.831476 -11.429714 1.306322 -0.958237 -4.543848
Spine 0.294131 -5.306090 7.281915
Head 0.715373 5.199947 -6.955738
LeftShoulder -21.629458 14.251252 -6.390094
LeftArm 27.137060 -33.930857 -74.492886
LeftForeArm 2.096992 -0.000000 115.589315
LeftHand 3.000312 0.000000 15.231177
LeftHandThumb1 -26.253704 0.000000 33.147579
RightShoulder -5.639882 -6.016612 -0.558326
RightArm 4.164758 -20.385248 71.335387
RightForeArm -17.288334 -0.000000 22.566384
RightHand 0.690715 0.000000 -0.897994
RightHandThumb1 -24.326973 -0.000000 -32.862282
LeftUpLeg 6.911118 5.801266 -8.387612
LeftLeg -8.560899 -0.000000 0.000000
LeftFoot -15.743398 27.462732 -6.669681
LeftToeBase 18.954962 -0.000000 -0.000000
RightUpLeg 2.819062 25.404231 2.792998
RightLeg 104.762303 -0.000000 -0.000000
RightFoot -33.044637 -30.482913 22.511285
RightToeBase 1.705579 -0.000000 -0.000000
800
root -2.047052 34.827789 -11.438557 1.366244 -0.714243 -4.557136
Spine 0.208819 -5.546842 7.376352
Head 0.698725 5.215677 -7.034292
LeftShoulder -21.621383 14.197730 -6.455027
LeftArm 27.225985 -33.917768 -74.589884
LeftForeArm 2.214233 -0.000000 115.556650
LeftHand 3.002921 -0.000000 15.183618
LeftHandThumb1 -26.253704 0.000000 33.147579
RightShoulder -5.693956 -6.062346 -0.537544
RightArm 4.165495 -20.600992 71.213245
RightForeArm -17.086241 -0.000000 22.520634
RightHand 0.573568 -0.000000 -0.876871
RightHandThumb1 -24.326973 -0.000000 -32.862282
LeftUpLeg 6.914599 5.688209 -8.402137
LeftLeg -8.723394 -0.000000 0.000000
LeftFoot -15.645176 27.416191 -6.642488
LeftToeBase 19.020651 -0.000000 -0.000000
RightUpLeg 2.988231 26.643211 2.777280
RightLeg 105.089523 -0.000000 -0.000000
RightFoot -32.959448 -30.283216 22.375056
RightToeBase 1.642572 -0.000000 -0.000000
801
root -2.032208 34.826073 -11.448724 1.452038 -0.491749 -4.593961
Spine 0.082776 -5.761808 7.509717
Head 0.720168 5.238142 -7.133777
LeftShoulder -21.598255 14.182351 -6.598662
LeftArm 27.415890 -34.017537 -74.713151
LeftForeArm 2.309939 -0.000000 115.547058
LeftHand 2.954635 -0.000000 15.027081
LeftHandThumb1 -26.253704 0.000000 33.147579
RightShoulder -5.724998 -6.076210 -0.532018
RightArm 4.099317 -20.599874 71.153647
RightForeArm -17.158952 -0.000000 22.450386
RightHand 0.627385 -0.000000 -1.170610
RightHandThumb1 -24.326973 -0.000000 -32.862282
LeftUpLeg 6.879958 5.660575 -8.394463
LeftLeg -8.865232 -0.000000 0.000000
LeftFoot -15.527707 27.321914 -6.559388
LeftToeBase 19.077612 -0.000000 -0.000000
RightUpLeg 3.096334 27.842123 2.741275
RightLeg 105.447109 -0.000000 -0.000000
RightFoot -32.804624 -30.062975 22.160329
RightToeBase 1.958525 -0.000000 -0.000000
802
root -2.020610 34.823838 -11.453842 1.507072 -0.297833 -4.617959
Spine -0.018685 -5.948426 7.603235
Head 0.760926 5.258784 -7.192211
LeftShoulder -21.609521 14.183356 -6.683107
LeftArm 27.540895 -34.021556 -74.829859
LeftForeArm 2.448610 -0.000000 115.535626
LeftHand 2.929328 0.000000 15.037847
LeftHandThumb1 -26.253704 0.000000 33.147579
RightShoulder -5.737021 -6.107988 -0.513980
RightArm 4.009833 -20.253297 71.188270
RightForeArm -17.377362 0.000000 22.359972
RightHand 0.673479 0.000000 -0.793622
RightHandThumb1 -24.326973 -0.000000 -32.862282
LeftUpLeg 6.864260 5.667894 -8.391625
LeftLeg -8.968222 -0.000000 0.000000
LeftFoot -15.436386 27.218575 -6.476072
LeftToeBase 19.084525 -0.000000 -0.000000
RightUpLeg 3.304579 29.035517 2.794751
RightLeg 105.802419 -0.000000 -0.000000
RightFoot -32.722928 -30.073391 22.043208
RightToeBase 1.756912 -0.000000 -0.000000
803
root -2.011909 34.822531 -11.454802 1.561088 0.007667 -4.648657
Spine -0.156995 -6.254400 7.700009
Head 0.834014 5.293215 -7.229632
LeftShoulder -21.620162 14.190794 -6.726602
LeftArm 27.577212 -34.013785 -74.934377
LeftForeArm 2.580776 -0.000000 115.558491
LeftHand 2.898004 0.000000 15.031777
LeftHandThumb1 -26.253704 0.000000 33.147579
RightShoulder -5.773279 -6.143648 -0.503368
RightArm 3.955973 -20.278093 71.157060
RightForeArm -17.379321 -0.000000 22.261768
RightHand 0.663651 -0.000000 -0.697672
RightHandThumb1 -24.326973 -0.000000 -32.862282
LeftUpLeg 6.841132 5.615862 -8.371263
LeftLeg -9.041196 -0.000000 0.000000
LeftFoot -15.349430 27.082199 -6.373526
LeftToeBase 19.126107 -0.000000 -0.000000
RightUpLeg 3.537547 30.030319 2.885393
RightLeg 106.167200 -0.000000 -0.000000
RightFoot -32.582940 -29.936342 21.852233
RightToeBase 2.077211 -0.000000 -0.000000
804
root -2.018641 34.823667 -11.450840 1.619217 0.441018 -4.695717
Spine -0.347573 -6.658288 7.760096
Head 0.963737 5.322127 -7.179129
LeftShoulder -21.619446 14.221703 -6.729146
LeftArm 27.594987 -34.000473 -74.983642
LeftForeArm 2.711063 -0.000000 115.589572
LeftHand 2.889369 -0.000000 15.044201
LeftHandThumb1 -26.253704 0.000000 33.147579
RightShoulder -5.840466 -6.226839 -0.411058
RightArm 3.915358 -20.368966 71.085736
RightForeArm -17.300383 -0.000000 22.184619
RightHand 0.580349 -0.000000 -0.888509
RightHandThumb1 -24.326973 -0.000000 -32.862282
LeftUpLeg 6.798945 5.401746 -8.302427
LeftLeg -9.059343 -0.000000 0.000000
LeftFoot -15.336583 26.948504 -6.336155
LeftToeBase 19.168620 -0.000000 -0.000000
RightUpLeg 3.800992 30.812486 3.049801
RightLeg 106.540507 -0.000000 -0.000000
RightFoot -32.494988 -29.809509 21.728491
RightToeBase 1.877626 -0.000000 -0.000000
805
root -2.016329 34.825480 -11.456815 1.692219 0.680116 -4.713414
Spine -0.492468 -6.866801 7.803393
Head 1.049106 5.344395 -7.151449
LeftShoulder -21.608215 14.224203 -6.757645
LeftArm 27.600322 -33.994720 -75.019043
LeftForeArm 2.816313 -0.000000 115.645861
LeftHand 2.854330 0.000000 15.066546
LeftHandThumb1 -26.253704 0.000000 33.147579
RightShoulder -5.899092 -6.243608 -0.363078
RightArm 3.841774 -20.368331 71.077836
RightForeArm -17.223891 -0.000000 22.084831
RightHand 0.690996 -0.000000 -0.624543
RightHandThumb1 -24.326973 -0.000000 -32.862282
LeftUpLeg 6.736072 5.257297 -8.293351
LeftLeg -9.107218 -0.000000 0.000000
LeftFoot -15.277350 26.926618 -6.312865
LeftToeBase 19.238861 -0.000000 -0.000000
RightUpLeg 3.931084 31.720932 3.073625
RightLeg 106.993549 -0.000000 -0.000000
RightFoot -32.369014 -29.689269 21.532144
RightToeBase 2.569572 -0.000000 -0.000000
806
root -2.009678 34.826897 -11.464539 1.757340 0.889776 -4.730825
Spine -0.613233 -7.051172 7.870105
Head 1.114706 5.353852 -7.166236
LeftShoulder -21.592949 14.198399 -6.792063
LeftArm 27.564755 -33.999909 -75.056609
LeftForeArm 2.940842 -0.000000 115.719768
LeftHand 2.839207 -0.000000 15.122651
LeftHandThumb1 -26.253704 0.000000 33.147579
RightShoulder -5.945128 -6.250119 -0.373016
RightArm 3.764125 -20.285705 71.125563
RightForeArm -17.268036 -0.000000 21.972102
RightHand 0.601785 -0.000000 -0.674631
RightHandThumb1 -24.326973 -0.000000 -32.862282
LeftUpLeg 6.686233 5.086384 -8.292619
LeftLeg -9.170015 -0.000000 0.000000
LeftFoot -15.215873 26.955915 -6.323715
LeftToeBase 19.209917 -0.000000 -0.000000
RightUpLeg 4.065655 32.618870 3.103593
RightLeg 107.472129 -0.000000 -0.000000
RightFoot -32.236556 -29.491780 21.420853
RightToeBase 2.091115 -0.000000 -0.000000
807
root -2.005911 34.828443 -11.471905 1.808792 1.131864 -4.740189
Spine -0.723315 -7.257597 7.902879
Head 1.173293 5.298667 -7.186960
LeftShoulder -21.574281 14.159971 -6.794348
LeftArm 27.504533 -33.997151 -75.083467
LeftForeArm 3.003342 -0.000000 115.809120
LeftHand 2.784072 0.000000 15.074232
LeftHandThumb1 -26.253704 0.000000 33.147579
RightShoulder -5.988848 -6.244450 -0.366975
RightArm 3.669441 -20.231726 71.183320
RightForeArm -17.257066 -0.000000 21.861778
RightHand 0.657002 -0.000000 -0.557630
RightHandThumb1 -24.326973 -0.000000 -32.862282
LeftUpLeg 6.630930 4.970216 -8.291716
LeftLeg -9.197280 -0.000000 0.000000
LeftFoot -15.165281 26.924958 -6.301055
LeftToeBase 19.262409 -0.000000 -0.000000
RightUpLeg 4.204934 33.398296 3.122369
RightLeg 107.959205 -0.000000 -0.000000
RightFoot -32.033355 -29.318784 21.183722
RightToeBase 1.886506 -0.000000 -0.000000
808
root -2.003970 34.831022 -11.479476 1.865356 1.379500 -4.753459
Spine -0.834958 -7.469320 7.946614
Head 1.222255 5.292146 -7.189559
LeftShoulder -21.568735 14.132885 -6.825802
LeftArm 27.448187 -33.996751 -75.084289
LeftForeArm 3.090497 -0.000000 115.906845
LeftHand 2.749471 -0.000000 15.063789
LeftHandThumb1 -26.253704 0.000000 33.147579
RightShoulder -6.043862 -6.231848 -0.357420
RightArm 3.538675 -20.171919 71.237192
RightForeArm -17.522206 -0.000000 21.830311
RightHand 0.729670 -0.000000 -0.859930
RightHandThumb1 -24.326973 -0.000000 -32.862282
LeftUpLeg 6.560173 4.849305 -8.279880
LeftLeg -9.197648 -0.000000 0.000000
LeftFoot -15.132678 26.861257 -6.283610
LeftToeBase 19.291553 -0.000000 -0.000000
RightUpLeg 4.318206 34.069544 3.161692
RightLeg 108.454822 -0.000000 -0.000000
RightFoot -32.009560 -29.248555 21.136265
RightToeBase 2.387747 -0.000000 -0.000000
809
root -1.998857 34.832041 -11.487500 1.938009 1.637611 -4.720248
Spine -0.971593 -7.682658 7.948491
Head 1.270663 5.359549 -7.141524
LeftShoulder -21.535689 14.110193 -6.840381
LeftArm 27.352933 -34.024089 -75.065020
LeftForeArm 3.202453 -0.000000 115.999812
LeftHand 2.720962 -0.000000 15.082128
LeftHandThumb1 -26.253704 0.000000 33.147579
RightShoulder -6.120757 -6.245214 -0.381701
RightArm 3.450934 -20.063403 71.345375
RightForeArm -17.585914 0.000000 21.761869
RightHand 0.583380 -0.000000 -0.357044
RightHandThumb1 -24.326973 -0.000000 -32.862282
LeftUpLeg 6.463355 4.750416 -8.318419
LeftLeg -9.177197 -0.000000 0.000000
LeftFoot -15.084615 26.759306 -6.280669
LeftToeBase 19.304083 -0.000000 -0.000000
RightUpLeg 4.311503 34.586968 3.021906
RightLeg 108.979214 -0.000000 -0.000000
RightFoot -32.019451 -29.117060 21.224312
RightToeBase 1.877212 -0.000000 -0.000000
